# xmcd CD database file
# 
# Track frame offsets:
# 	150
# 	12959
# 	27354
# 	37802
# 	49050
# 	62309
# 	72489
# 	83866
# 	96808
# 	107726
# 	118208
# 	130217
# 	141515
# 	152106
# 	161940
# 	174917
# 	185413
# 	194945
# 	203689
# 	214389
# 	224912
# 	234993
# 
# Disc length: 3301 seconds
# 
# Submitted via: Nero 6, 6, 1, 15
# 
# Revision: 0
# Processed by: cddbd v1.5.2PL0 Copyright (c) Steve Scherf et al.
#
DISCID=4d0ce316
DTITLE=Bill Haley - From Western Swing to R-O-C-K [CD-2 of 4) Rock The Joint
DYEAR=1900
DGENRE=
TTITLE0=Bill Haley and His Saddlemen - Green Tree Boogie[Bill Haley and His Saddlem
TTITLE0=en]
TTITLE1=Bill Haley and His Saddlemen - Down Deep In My Heart[Bill Haley and His Sad
TTITLE1=dlemen]
TTITLE2=Bill Haley with The Saddlemen - Jukebox Cannonball[Bill Haley with The 
TTITLE2=Saddlemen]
TTITLE3=Bill Haley with The Saddlemen - Sundwon Boogie[Bill Haley with The Sadd
TTITLE3=lemen]
TTITLE4=Bill Haley with The Saddlemen - Icy Heart[Bill Haley with The Saddlemen
TTITLE4=]
TTITLE5=Bill Haley with The Saddlemen - Rock The Joint[Bill Haley with The Sadd
TTITLE5=lemen]
TTITLE6=Bill Haley with The Saddlemen - Dance With A Dolly (With A Hole In Her 
TTITLE6=Stocking)[Bill Haley with The Saddlemen]
TTITLE7=Bill Haley with The Saddlemen - Rockin' chair On The Moon[Bill Haley wi
TTITLE7=th The Saddlemen]
TTITLE8=Bill Haley with Haley's Comets - Stop Beatin' Around The Mulberry Bush[
TTITLE8=Bill Haley with Haley's Comets]
TTITLE9=Bill Haley with Haley's Comets - Real Rock Drive[Bill Haley with Haley'
TTITLE9=s Comets]
TTITLE10=Bill Haley with Haley's Comets - Crazy Man Crazy[Bill Haley with Haley
TTITLE10='s Comets]
TTITLE11=Bill Haley with Haley's Comets - What'cha Gonna Do[Bill Haley with Hal
TTITLE11=ey's Comets]
TTITLE12=Bill Haley with Haley's Comets - Pat-A-Cake[Bill Haley with Haley's Co
TTITLE12=mets]
TTITLE13=Bill Haley with Haley's Comets - Fractured[Bill Haley with Haley's Com
TTITLE13=ets]
TTITLE14=Bill Haley with Haley's Comets - Live It Up[Bill Haley with Haley's Co
TTITLE14=mets]
TTITLE15=Bill Haley with Haley's Comets - Farewell, So Long Goodbye[Bill Haley 
TTITLE15=with Haley's Comets]
TTITLE16=Bill Haley and His Comets - I'll Be Ture[Bill Haley and His Comets]
TTITLE17=Bill Haley and His Comets - Ten Little Indian[Bill Haley and His Comets]
TTITLE18=Bill Haley and The Comets - Yes Indeed[Bill Haley and The Comets]
TTITLE19=Bill Haley and The Comets - Yes Indeed[Bill Haley and The Comets]
TTITLE20=Bill Haley and Haley's Comets - Chattanooga Choo Choo[Bill Haley and Haley
TTITLE20='s Comets]
TTITLE21=Bill Haley and Haley's Comets - Straight Jacket[Bill Haley and Haley's Com
TTITLE21=ets]
EXTD=
EXTT0=
EXTT1=
EXTT2=
EXTT3=
EXTT4=
EXTT5=
EXTT6=
EXTT7=
EXTT8=
EXTT9=
EXTT10=
EXTT11=
EXTT12=
EXTT13=
EXTT14=
EXTT15=
EXTT16=
EXTT17=
EXTT18=
EXTT19=
EXTT20=
EXTT21=
PLAYORDER=
